Light Display Narrow — UC 2.ufo
<glyph name="A" format="1">
  <advance width="1120"/>
  <unicode hex="0041"/>
  <outline>
    <contour>
      <point x="705" y="1486" type="move" name="top"/>
    </contour>
    <contour>
      <point x="949" y="18" type="move" name="ogonek"/>
    </contour>
    <contour>
      <point x="487" y="0" type="move" name="bottom"/>
    </contour>
    <contour>
      <point x="-82" y="36" type="line"/>
      <point x="-87" y="0" type="line"/>
      <point x="283" y="0" type="line"/>
      <point x="287" y="36" type="line"/>
      <point x="131" y="62" type="line"/>
      <point x="632" y="1277" type="line"/>
      <point x="694" y="1430" type="line"/>
      <point x="661" y="1432" type="line"/>
      <point x="674" y="1234" type="line"/>
      <point x="822" y="66" type="line"/>
      <point x="670" y="36" type="line"/>
      <point x="663" y="0" type="line"/>
      <point x="1096" y="0" type="line"/>
      <point x="1100" y="36" type="line"/>
      <point x="980" y="63" type="line"/>
      <point x="782" y="1497" type="line"/>
      <point x="659" y="1497" type="line"/>
      <point x="38" y="61" type="line"/>
    </contour>
    <contour>
      <point x="279" y="551" type="line"/>
      <point x="278" y="485" type="line"/>
      <point x="827" y="485" type="line"/>
      <point x="828" y="551" type="line"/>
    </contour>
  </outline>
</glyph>
<glyph name="B" format="1">
  <advance width="1061"/>
  <unicode hex="0042"/>
  <outline>
    <contour>
      <point x="627" y="1486" type="move" name="top"/>
    </contour>
    <contour>
      <point x="433" y="0" type="move" name="bottom"/>
    </contour>
    <contour>
      <point x="-25" y="36" type="line"/>
      <point x="-30" y="0" type="line"/>
      <point x="177" y="0" type="line" smooth="yes"/>
      <point x="240" y="0"/>
      <point x="339" y="-14"/>
      <point x="414" y="-14" type="curve"/>
      <point x="755" y="-14"/>
      <point x="997" y="133"/>
      <point x="1002" y="459" type="curve"/>
      <point x="1006" y="649"/>
      <point x="889" y="757"/>
      <point x="714" y="769" type="curve"/>
      <point x="890" y="822"/>
      <point x="1015" y="976"/>
      <point x="1016" y="1190" type="curve"/>
      <point x="1017" y="1355"/>
      <point x="922" y="1502"/>
      <point x="639" y="1502" type="curve"/>
      <point x="544" y="1502"/>
      <point x="471" y="1488"/>
      <point x="390" y="1486" type="curve"/>
      <point x="176" y="1486" type="line"/>
      <point x="171" y="1450" type="line"/>
      <point x="289" y="1419" type="line"/>
      <point x="103" y="67" type="line"/>
    </contour>
    <contour>
      <point x="435" y="37" type="curve"/>
      <point x="360" y="37"/>
      <point x="248" y="61"/>
      <point x="236" y="74" type="curve"/>
      <point x="251" y="39" type="line"/>
      <point x="350" y="748" type="line"/>
      <point x="312" y="736" type="line"/>
      <point x="387" y="738"/>
      <point x="447" y="737"/>
      <point x="558" y="737" type="curve"/>
      <point x="734" y="737"/>
      <point x="846" y="652"/>
      <point x="845" y="460" type="curve"/>
      <point x="842" y="182"/>
      <point x="689" y="37"/>
    </contour>
    <contour>
      <point x="579" y="794" type="curve"/>
      <point x="476" y="795"/>
      <point x="378" y="792"/>
      <point x="322" y="794" type="curve"/>
      <point x="352" y="764" type="line"/>
      <point x="450" y="1471" type="line"/>
      <point x="413" y="1426" type="line"/>
      <point x="445" y="1439"/>
      <point x="572" y="1450"/>
      <point x="606" y="1450" type="curve"/>
      <point x="807" y="1450"/>
      <point x="863" y="1328"/>
      <point x="862" y="1171" type="curve"/>
      <point x="861" y="932"/>
      <point x="717" y="792"/>
    </contour>
  </outline>
</glyph>
<glyph name="C" format="1">
  <advance width="1078"/>
  <unicode hex="0043"/>
  <outline>
    <contour>
      <point x="753" y="1486" type="move" name="top"/>
    </contour>
    <contour>
      <point x="551" y="0" type="move" name="bottom"/>
    </contour>
    <contour>
      <point x="563" y="-17" type="curve"/>
      <point x="735" y="-17"/>
      <point x="856" y="47"/>
      <point x="924" y="71" type="curve"/>
      <point x="968" y="398" type="line"/>
      <point x="900" y="398" type="line"/>
      <point x="881" y="326"/>
      <point x="861" y="224"/>
      <point x="842" y="157" type="curve"/>
      <point x="805" y="89"/>
      <point x="670" y="38"/>
      <point x="594" y="38" type="curve"/>
      <point x="323" y="38"/>
      <point x="253" y="323"/>
      <point x="254" y="623" type="curve"/>
      <point x="255" y="1009"/>
      <point x="409" y="1449"/>
      <point x="729" y="1449" type="curve"/>
      <point x="851" y="1449"/>
      <point x="911" y="1407"/>
      <point x="948" y="1379" type="curve"/>
      <point x="950" y="1080" type="line"/>
      <point x="1020" y="1080" type="line"/>
      <point x="1080" y="1443" type="line"/>
      <point x="1020" y="1452"/>
      <point x="912" y="1502"/>
      <point x="746" y="1502" type="curve"/>
      <point x="390" y="1502"/>
      <point x="94" y="1142"/>
      <point x="94" y="612" type="curve"/>
      <point x="93" y="307"/>
      <point x="193" y="-17"/>
    </contour>
  </outline>
</glyph>
<glyph name="D" format="1">
  <advance width="1151"/>
  <unicode hex="0044"/>
  <outline>
    <contour>
      <point x="656" y="1484" type="move" name="top"/>
    </contour>
    <contour>
      <point x="462" y="0" type="move" name="bottom"/>
    </contour>
    <contour>
      <point x="-25" y="36" type="line"/>
      <point x="-30" y="0" type="line"/>
      <point x="178" y="0" type="line" smooth="yes"/>
      <point x="316" y="0"/>
      <point x="368" y="-17"/>
      <point x="492" y="-17" type="curve"/>
      <point x="898" y="-17"/>
      <point x="1140" y="403"/>
      <point x="1149" y="902" type="curve"/>
      <point x="1151" y="1257"/>
      <point x="1018" y="1502"/>
      <point x="662" y="1502" type="curve"/>
      <point x="580" y="1502"/>
      <point x="495" y="1488"/>
      <point x="409" y="1486" type="curve"/>
      <point x="176" y="1486" type="line"/>
      <point x="171" y="1450" type="line"/>
      <point x="289" y="1419" type="line"/>
      <point x="102" y="67" type="line"/>
    </contour>
    <contour>
      <point x="489" y="37" type="curve"/>
      <point x="378" y="37"/>
      <point x="294" y="62"/>
      <point x="218" y="86" type="curve"/>
      <point x="249" y="28" type="line"/>
      <point x="448" y="1456" type="line"/>
      <point x="411" y="1411" type="line"/>
      <point x="459" y="1427"/>
      <point x="552" y="1449"/>
      <point x="629" y="1449" type="curve"/>
      <point x="896" y="1449"/>
      <point x="992" y="1255"/>
      <point x="990" y="890" type="curve"/>
      <point x="983" y="470"/>
      <point x="800" y="37"/>
    </contour>
  </outline>
</glyph>
<glyph name="E" format="1">
  <advance width="1023"/>
  <unicode hex="0045"/>
  <outline>
    <contour>
      <point x="162" y="1486" type="move" name="topleft"/>
    </contour>
    <contour>
      <point x="656" y="1486" type="move" name="top"/>
    </contour>
    <contour>
      <point x="826" y="9" type="move" name="ogonek"/>
    </contour>
    <contour>
      <point x="454" y="0" type="move" name="bottom"/>
    </contour>
    <contour>
      <point x="-25" y="36" type="line"/>
      <point x="-30" y="0" type="line"/>
      <point x="880" y="0" type="line"/>
      <point x="962" y="327" type="line"/>
      <point x="899" y="344" type="line"/>
      <point x="790" y="93" type="line"/>
      <point x="255" y="66" type="line"/>
      <point x="347" y="733" type="line"/>
      <point x="753" y="719" type="line"/>
      <point x="766" y="810" type="line"/>
      <point x="356" y="798" type="line"/>
      <point x="442" y="1422" type="line"/>
      <point x="878" y="1401" type="line"/>
      <point x="915" y="1174" type="line"/>
      <point x="966" y="1174" type="line"/>
      <point x="980" y="1486" type="line"/>
      <point x="176" y="1486" type="line"/>
      <point x="171" y="1450" type="line"/>
      <point x="289" y="1419" type="line"/>
      <point x="102" y="67" type="line"/>
    </contour>
  </outline>
</glyph>
<glyph name="F" format="1">
  <advance width="884"/>
  <unicode hex="0046"/>
  <outline>
    <contour>
      <point x="500" y="-164" type="move" name="btm"/>
    </contour>
    <contour>
      <point x="652" y="1486" type="move" name="top"/>
    </contour>
    <contour>
      <point x="-25" y="36" type="line"/>
      <point x="-30" y="0" type="line"/>
      <point x="454" y="0" type="line"/>
      <point x="459" y="36" type="line"/>
      <point x="256" y="69" type="line"/>
      <point x="347" y="733" type="line"/>
      <point x="736" y="719" type="line"/>
      <point x="749" y="810" type="line"/>
      <point x="356" y="798" type="line"/>
      <point x="442" y="1421" type="line"/>
      <point x="860" y="1400" type="line"/>
      <point x="899" y="1174" type="line"/>
      <point x="951" y="1174" type="line"/>
      <point x="964" y="1486" type="line"/>
      <point x="176" y="1486" type="line"/>
      <point x="171" y="1450" type="line"/>
      <point x="289" y="1419" type="line"/>
      <point x="102" y="67" type="line"/>
    </contour>
  </outline>
</glyph>
<glyph name="H" format="1">
  <advance width="1216"/>
  <unicode hex="0048"/>
  <outline>
    <contour>
      <point x="755" y="1486" type="move" name="top"/>
    </contour>
    <contour>
      <point x="550" y="0" type="move" name="bottom"/>
    </contour>
    <contour>
      <point x="-25" y="36" type="line"/>
      <point x="-30" y="0" type="line"/>
      <point x="378" y="0" type="line"/>
      <point x="383" y="36" type="line"/>
      <point x="255" y="67" type="line"/>
      <point x="442" y="1419" type="line"/>
      <point x="562" y="1450" type="line"/>
      <point x="567" y="1486" type="line"/>
      <point x="176" y="1486" type="line"/>
      <point x="171" y="1450" type="line"/>
      <point x="289" y="1419" type="line"/>
      <point x="102" y="67" type="line"/>
    </contour>
    <contour>
      <point x="722" y="36" type="line"/>
      <point x="717" y="0" type="line"/>
      <point x="1125" y="0" type="line"/>
      <point x="1130" y="36" type="line"/>
      <point x="1003" y="67" type="line"/>
      <point x="1190" y="1419" type="line"/>
      <point x="1309" y="1450" type="line"/>
      <point x="1314" y="1486" type="line"/>
      <point x="923" y="1486" type="line"/>
      <point x="918" y="1450" type="line"/>
      <point x="1036" y="1419" type="line"/>
      <point x="850" y="67" type="line"/>
    </contour>
    <contour>
      <point x="314" y="798" type="line"/>
      <point x="313" y="732" type="line"/>
      <point x="997" y="732" type="line"/>
      <point x="999" y="798" type="line"/>
    </contour>
  </outline>
</glyph>
<glyph name="I" format="1">
  <advance width="500"/>
  <unicode hex="0049"/>
  <outline>
    <contour>
      <point x="356" y="-164" type="move" name="btm"/>
    </contour>
    <contour>
      <point x="183" y="1486" type="move" name="topleft"/>
    </contour>
    <contour>
      <point x="398" y="1486" type="move" name="top"/>
    </contour>
    <contour>
      <point x="330" y="0" type="move" name="ogonek"/>
    </contour>
    <contour>
      <point x="197" y="0" type="move" name="bottom"/>
    </contour>
    <contour>
      <point x="-10" y="36" type="line"/>
      <point x="-15" y="0" type="line"/>
      <point x="393" y="0" type="line"/>
      <point x="398" y="36" type="line"/>
      <point x="270" y="67" type="line"/>
      <point x="457" y="1419" type="line"/>
      <point x="578" y="1450" type="line"/>
      <point x="582" y="1486" type="line"/>
      <point x="191" y="1486" type="line"/>
      <point x="186" y="1450" type="line"/>
      <point x="304" y="1419" type="line"/>
      <point x="117" y="67" type="line"/>
    </contour>
  </outline>
</glyph>
<glyph name="J" format="1">
  <advance width="527"/>
  <unicode hex="004A"/>
  <outline>
    <contour>
      <point x="236" y="-164" type="move" name="btm"/>
    </contour>
    <contour>
      <point x="439" y="1486" type="move" name="top"/>
    </contour>
    <contour>
      <point x="-169" y="-266" type="curve"/>
      <point x="-151" y="-309" type="line"/>
      <point x="39" y="-273"/>
      <point x="236" y="-157"/>
      <point x="288" y="79" type="curve"/>
      <point x="326" y="253"/>
      <point x="394" y="763"/>
      <point x="469" y="1415" type="curve"/>
      <point x="608" y="1450" type="line"/>
      <point x="613" y="1486" type="line"/>
      <point x="203" y="1486" type="line"/>
      <point x="198" y="1450" type="line"/>
      <point x="320" y="1419" type="line"/>
      <point x="271" y="993"/>
      <point x="212" y="415"/>
      <point x="149" y="92" type="curve"/>
      <point x="118" y="-67"/>
      <point x="21" y="-208"/>
    </contour>
  </outline>
</glyph>
<glyph name="K" format="1">
  <advance width="1138"/>
  <unicode hex="004B"/>
  <outline>
    <contour>
      <point x="737" y="1486" type="move" name="top"/>
    </contour>
    <contour>
      <point x="586" y="0" type="move" name="bottom"/>
    </contour>
    <contour>
      <point x="-25" y="36" type="line"/>
      <point x="-30" y="0" type="line"/>
      <point x="378" y="0" type="line"/>
      <point x="383" y="36" type="line"/>
      <point x="255" y="67" type="line"/>
      <point x="441" y="1419" type="line"/>
      <point x="562" y="1450" type="line"/>
      <point x="567" y="1486" type="line"/>
      <point x="176" y="1486" type="line"/>
      <point x="171" y="1450" type="line"/>
      <point x="289" y="1419" type="line"/>
      <point x="102" y="67" type="line"/>
    </contour>
    <contour>
      <point x="309" y="586" type="line"/>
      <point x="299" y="485" type="line"/>
      <point x="1072" y="1424" type="line"/>
      <point x="1191" y="1450" type="line"/>
      <point x="1197" y="1486" type="line"/>
      <point x="847" y="1486" type="line"/>
      <point x="843" y="1450" type="line"/>
      <point x="978" y="1422" type="line"/>
    </contour>
    <contour>
      <point x="842" y="0" type="curve"/>
      <point x="1060" y="0" type="line"/>
      <point x="1065" y="36" type="line"/>
      <point x="969" y="68" type="line"/>
      <point x="935" y="96"/>
      <point x="877" y="228"/>
      <point x="791" y="417" type="curve"/>
      <point x="738" y="533"/>
      <point x="634" y="743"/>
      <point x="589" y="846" type="curve"/>
      <point x="490" y="733" type="line"/>
      <point x="531" y="641"/>
      <point x="613" y="445"/>
      <point x="664" y="331" type="curve"/>
      <point x="726" y="193"/>
      <point x="801" y="4"/>
    </contour>
  </outline>
</glyph>
<glyph name="L" format="1">
  <advance width="932"/>
  <unicode hex="004C"/>
  <outline>
    <contour>
      <point x="744" y="1110" type="move" name="car"/>
    </contour>
    <contour>
      <point x="376" y="1486" type="move" name="top"/>
    </contour>
    <contour>
      <point x="438" y="0" type="move" name="bottom"/>
    </contour>
    <contour>
      <point x="-25" y="36" type="line"/>
      <point x="-30" y="0" type="line"/>
      <point x="804" y="0" type="line"/>
      <point x="898" y="435" type="line"/>
      <point x="835" y="449" type="line"/>
      <point x="714" y="93" type="line"/>
      <point x="255" y="66" type="line"/>
      <point x="441" y="1417" type="line"/>
      <point x="579" y="1450" type="line"/>
      <point x="583" y="1486" type="line"/>
      <point x="176" y="1486" type="line"/>
      <point x="171" y="1450" type="line"/>
      <point x="289" y="1419" type="line"/>
      <point x="102" y="67" type="line"/>
    </contour>
  </outline>
</glyph>
<glyph name="M" format="1">
  <advance width="1584"/>
  <unicode hex="004D"/>
  <outline>
    <contour>
      <point x="904" y="1486" type="move" name="top"/>
    </contour>
    <contour>
      <point x="703" y="0" type="move" name="bottom"/>
    </contour>
    <contour>
      <point x="1270" y="1486" type="line"/>
      <point x="852" y="466" type="line"/>
      <point x="764" y="238" type="line"/>
      <point x="740" y="470" type="line"/>
      <point x="610" y="1486" type="line"/>
      <point x="276" y="1486" type="line"/>
      <point x="272" y="1451" type="line"/>
      <point x="409" y="1419" type="line"/>
      <point x="101" y="61" type="line"/>
      <point x="-28" y="36" type="line"/>
      <point x="-32" y="0" type="line"/>
      <point x="340" y="0" type="line"/>
      <point x="344" y="36" type="line"/>
      <point x="189" y="63" type="line"/>
      <point x="400" y="1038" type="line"/>
      <point x="477" y="1412" type="line"/>
      <point x="529" y="1018" type="line"/>
      <point x="643" y="0" type="line"/>
      <point x="737" y="0" type="line"/>
      <point x="1163" y="1040" type="line"/>
      <point x="1300" y="1400" type="line"/>
      <point x="1272" y="996" type="line"/>
      <point x="1228" y="67" type="line"/>
      <point x="1067" y="36" type="line"/>
      <point x="1062" y="0" type="line"/>
      <point x="1520" y="0" type="line"/>
      <point x="1523" y="36" type="line"/>
      <point x="1381" y="69" type="line"/>
      <point x="1431" y="1425" type="line"/>
      <point x="1571" y="1450" type="line"/>
      <point x="1576" y="1486" type="line"/>
    </contour>
  </outline>
</glyph>
<glyph name="N" format="1">
  <advance width="1151"/>
  <unicode hex="004E"/>
  <outline>
    <contour>
      <point x="766" y="1486" type="move" name="top"/>
    </contour>
    <contour>
      <point x="605" y="0" type="move" name="bottom"/>
    </contour>
    <contour>
      <point x="-25" y="36" type="line"/>
      <point x="-30" y="0" type="line"/>
      <point x="315" y="0" type="line"/>
      <point x="320" y="36" type="line"/>
      <point x="186" y="69" type="line"/>
      <point x="346" y="1419" type="line"/>
      <point x="320" y="1415" type="line"/>
      <point x="409" y="1099" type="line"/>
      <point x="820" y="0" type="line"/>
      <point x="936" y="0" type="line"/>
      <point x="1133" y="1417" type="line"/>
      <point x="1261" y="1450" type="line"/>
      <point x="1265" y="1486" type="line"/>
      <point x="921" y="1486" type="line"/>
      <point x="916" y="1450" type="line"/>
      <point x="1049" y="1417" type="line"/>
      <point x="892" y="91" type="line"/>
      <point x="922" y="99" type="line"/>
      <point x="839" y="393" type="line"/>
      <point x="431" y="1486" type="line"/>
      <point x="176" y="1486" type="line"/>
      <point x="171" y="1450" type="line"/>
      <point x="290" y="1419" type="line"/>
      <point x="102" y="69" type="line"/>
    </contour>
  </outline>
</glyph>
<glyph name="O" format="1">
  <advance width="1141"/>
  <unicode hex="004F"/>
  <outline>
    <contour>
      <point x="163" y="1486" type="move" name="topleft"/>
    </contour>
    <contour>
      <point x="613" y="743" type="move" name="center"/>
    </contour>
    <contour>
      <point x="511" y="0" type="move" name="bottom"/>
    </contour>
    <contour>
      <point x="715" y="1486" type="move" name="top"/>
    </contour>
    <contour>
      <point x="992" y="1431" type="move" name="topright"/>
    </contour>
    <contour>
      <point x="720" y="40" type="move" name="ogonek"/>
    </contour>
    <contour>
      <point x="517" y="-22" type="curve"/>
      <point x="876" y="-22"/>
      <point x="1126" y="378"/>
      <point x="1134" y="885" type="curve"/>
      <point x="1141" y="1257"/>
      <point x="1006" y="1503"/>
      <point x="710" y="1503" type="curve"/>
      <point x="355" y="1503"/>
      <point x="100" y="1116"/>
      <point x="91" y="605" type="curve"/>
      <point x="85" y="222"/>
      <point x="226" y="-22"/>
    </contour>
    <contour>
      <point x="539" y="29" type="curve"/>
      <point x="346" y="29"/>
      <point x="243" y="255"/>
      <point x="249" y="608" type="curve"/>
      <point x="257" y="1085"/>
      <point x="443" y="1452"/>
      <point x="690" y="1452" type="curve"/>
      <point x="887" y="1452"/>
      <point x="983" y="1239"/>
      <point x="976" y="879" type="curve"/>
      <point x="968" y="424"/>
      <point x="784" y="29"/>
    </contour>
  </outline>
</glyph>
<glyph name="P" format="1">
  <advance width="1031"/>
  <unicode hex="0050"/>
  <outline>
    <contour>
      <point x="195" y="-166" type="move" name="btm"/>
    </contour>
    <contour>
      <point x="659" y="1486" type="move" name="top"/>
    </contour>
    <contour>
      <point x="-25" y="36" type="line"/>
      <point x="-30" y="0" type="line"/>
      <point x="453" y="0" type="line"/>
      <point x="458" y="36" type="line"/>
      <point x="255" y="69" type="line"/>
      <point x="445" y="1446" type="line"/>
      <point x="408" y="1423" type="line"/>
      <point x="462" y="1432"/>
      <point x="562" y="1449"/>
      <point x="614" y="1449" type="curve"/>
      <point x="795" y="1449"/>
      <point x="877" y="1344"/>
      <point x="871" y="1111" type="curve"/>
      <point x="864" y="806"/>
      <point x="742" y="621"/>
      <point x="492" y="621" type="curve"/>
      <point x="445" y="621"/>
      <point x="365" y="636"/>
      <point x="315" y="650" type="curve"/>
      <point x="304" y="586" type="line"/>
      <point x="354" y="577"/>
      <point x="417" y="568"/>
      <point x="490" y="568" type="curve"/>
      <point x="797" y="568"/>
      <point x="1031" y="749"/>
      <point x="1033" y="1120" type="curve"/>
      <point x="1034" y="1377"/>
      <point x="898" y="1502"/>
      <point x="641" y="1502" type="curve"/>
      <point x="547" y="1502"/>
      <point x="469" y="1486"/>
      <point x="376" y="1486" type="curve"/>
      <point x="176" y="1486" type="line"/>
      <point x="171" y="1450" type="line"/>
      <point x="289" y="1419" type="line"/>
      <point x="102" y="67" type="line"/>
    </contour>
  </outline>
</glyph>
<glyph name="Q" format="1">
  <advance width="1141"/>
  <unicode hex="0051"/>
  <outline>
    <contour>
      <point x="770" y="-345" type="curve"/>
      <point x="871" y="-345"/>
      <point x="973" y="-300"/>
      <point x="1017" y="-262" type="curve"/>
      <point x="1017" y="-159" type="line"/>
      <point x="964" y="-187"/>
      <point x="880" y="-208"/>
      <point x="821" y="-208" type="curve"/>
      <point x="690" y="-208"/>
      <point x="565" y="-180"/>
      <point x="567" y="-12" type="curve"/>
      <point x="532" y="-17" type="line"/>
      <point x="464" y="-232"/>
      <point x="571" y="-345"/>
    </contour>
    <contour>
      <point x="517" y="-22" type="curve"/>
      <point x="876" y="-22"/>
      <point x="1126" y="378"/>
      <point x="1134" y="885" type="curve"/>
      <point x="1141" y="1257"/>
      <point x="1006" y="1503"/>
      <point x="710" y="1503" type="curve"/>
      <point x="355" y="1503"/>
      <point x="100" y="1116"/>
      <point x="91" y="605" type="curve"/>
      <point x="85" y="222"/>
      <point x="226" y="-22"/>
    </contour>
    <contour>
      <point x="539" y="29" type="curve"/>
      <point x="346" y="29"/>
      <point x="243" y="255"/>
      <point x="249" y="608" type="curve"/>
      <point x="257" y="1085"/>
      <point x="443" y="1452"/>
      <point x="690" y="1452" type="curve"/>
      <point x="887" y="1452"/>
      <point x="983" y="1239"/>
      <point x="976" y="879" type="curve"/>
      <point x="968" y="424"/>
      <point x="784" y="29"/>
    </contour>
  </outline>
</glyph>
<glyph name="R" format="1">
  <advance width="1100"/>
  <unicode hex="0052"/>
  <outline>
    <contour>
      <point x="621" y="1486" type="move" name="top"/>
    </contour>
    <contour>
      <point x="597" y="0" type="move" name="bottom"/>
    </contour>
    <contour>
      <point x="-25" y="36" type="line"/>
      <point x="-30" y="0" type="line"/>
      <point x="418" y="0" type="line"/>
      <point x="423" y="36" type="line"/>
      <point x="254" y="67" type="line"/>
      <point x="444" y="1447" type="line"/>
      <point x="408" y="1422" type="line"/>
      <point x="461" y="1432"/>
      <point x="562" y="1448"/>
      <point x="613" y="1448" type="curve"/>
      <point x="795" y="1448"/>
      <point x="870" y="1346"/>
      <point x="871" y="1157" type="curve"/>
      <point x="872" y="971"/>
      <point x="751" y="768"/>
      <point x="549" y="759" type="curve"/>
      <point x="516" y="757"/>
      <point x="377" y="759"/>
      <point x="335" y="761" type="curve"/>
      <point x="323" y="706" type="line"/>
      <point x="372" y="704"/>
      <point x="509" y="706"/>
      <point x="527" y="706" type="curve"/>
      <point x="601" y="702"/>
      <point x="664" y="448"/>
      <point x="755" y="155" type="curve"/>
      <point x="786" y="53"/>
      <point x="819" y="0"/>
      <point x="848" y="0" type="curve"/>
      <point x="1031" y="0" type="line"/>
      <point x="1037" y="36" type="line"/>
      <point x="953" y="37"/>
      <point x="932" y="109"/>
      <point x="865" y="332" type="curve"/>
      <point x="829" y="453"/>
      <point x="739" y="741"/>
      <point x="609" y="730" type="curve"/>
      <point x="594" y="710" type="line"/>
      <point x="869" y="767"/>
      <point x="1027" y="942"/>
      <point x="1027" y="1165" type="curve"/>
      <point x="1028" y="1394"/>
      <point x="909" y="1502"/>
      <point x="619" y="1502" type="curve"/>
      <point x="540" y="1502"/>
      <point x="464" y="1486"/>
      <point x="387" y="1486" type="curve"/>
      <point x="176" y="1486" type="line"/>
      <point x="171" y="1450" type="line"/>
      <point x="289" y="1419" type="line"/>
      <point x="102" y="67" type="line"/>
    </contour>
  </outline>
</glyph>
<glyph name="S" format="1">
  <advance width="850"/>
  <unicode hex="0053"/>
  <outline>
    <contour>
      <point x="566" y="1486" type="move" name="top"/>
    </contour>
    <contour>
      <point x="358" y="0" type="move" name="bottom"/>
    </contour>
    <contour>
      <point x="338" y="-22" type="curve"/>
      <point x="592" y="-22"/>
      <point x="783" y="143"/>
      <point x="785" y="410" type="curve"/>
      <point x="787" y="618"/>
      <point x="652" y="720"/>
      <point x="524" y="816" type="curve"/>
      <point x="409" y="903"/>
      <point x="292" y="983"/>
      <point x="297" y="1163" type="curve"/>
      <point x="301" y="1346"/>
      <point x="430" y="1450"/>
      <point x="566" y="1450" type="curve"/>
      <point x="669" y="1450"/>
      <point x="722" y="1411"/>
      <point x="757" y="1378" type="curve"/>
      <point x="761" y="1164" type="line"/>
      <point x="825" y="1164" type="line"/>
      <point x="868" y="1423" type="line"/>
      <point x="821" y="1454"/>
      <point x="704" y="1502"/>
      <point x="574" y="1502" type="curve"/>
      <point x="336" y="1502"/>
      <point x="162" y="1354"/>
      <point x="159" y="1092" type="curve"/>
      <point x="157" y="884"/>
      <point x="311" y="775"/>
      <point x="436" y="680" type="curve"/>
      <point x="545" y="596"/>
      <point x="646" y="512"/>
      <point x="638" y="337" type="curve"/>
      <point x="628" y="116"/>
      <point x="473" y="30"/>
      <point x="345" y="30" type="curve"/>
      <point x="245" y="30"/>
      <point x="173" y="77"/>
      <point x="126" y="115" type="curve"/>
      <point x="123" y="341" type="line"/>
      <point x="55" y="341" type="line"/>
      <point x="9" y="65" type="line"/>
      <point x="50" y="29"/>
      <point x="205" y="-22"/>
    </contour>
  </outline>
</glyph>
<glyph name="T" format="1">
  <advance width="1117"/>
  <unicode hex="0054"/>
  <outline>
    <contour>
      <point x="685" y="1486" type="move" name="top"/>
    </contour>
    <contour>
      <point x="491" y="0" type="move" name="bottom"/>
    </contour>
    <contour>
      <point x="1166" y="1486" type="line"/>
      <point x="199" y="1486" type="line"/>
      <point x="123" y="1063" type="line"/>
      <point x="185" y="1064" type="line"/>
      <point x="291" y="1407" type="line"/>
      <point x="608" y="1422" type="line"/>
      <point x="421" y="68" type="line"/>
      <point x="239" y="36" type="line"/>
      <point x="234" y="0" type="line"/>
      <point x="753" y="0" type="line"/>
      <point x="758" y="36" type="line"/>
      <point x="574" y="68" type="line"/>
      <point x="761" y="1422" type="line"/>
      <point x="1053" y="1407" type="line"/>
      <point x="1069" y="1061" type="line"/>
      <point x="1127" y="1063" type="line"/>
    </contour>
  </outline>
</glyph>
<glyph name="U" format="1">
  <advance width="1172"/>
  <unicode hex="0055"/>
  <outline>
    <contour>
      <point x="732" y="1486" type="move" name="top"/>
    </contour>
    <contour>
      <point x="698" y="20" type="move" name="ogonek"/>
    </contour>
    <contour>
      <point x="1115" y="1486" type="move" name="topright"/>
    </contour>
    <contour>
      <point x="544" y="0" type="move" name="bottom"/>
    </contour>
    <contour>
      <point x="1043" y="612" type="curve"/>
      <point x="1147" y="1420" type="line"/>
      <point x="1265" y="1450" type="line"/>
      <point x="1270" y="1486" type="line"/>
      <point x="948" y="1486" type="line"/>
      <point x="943" y="1450" type="line"/>
      <point x="1071" y="1419" type="line"/>
      <point x="980" y="612" type="line" smooth="yes"/>
      <point x="937" y="223"/>
      <point x="779" y="59"/>
      <point x="569" y="59" type="curve"/>
      <point x="363" y="59"/>
      <point x="294" y="215"/>
      <point x="298" y="434" type="curve"/>
      <point x="299" y="485"/>
      <point x="304" y="538"/>
      <point x="311" y="594" type="curve"/>
      <point x="423" y="1419" type="line"/>
      <point x="553" y="1450" type="line"/>
      <point x="558" y="1486" type="line"/>
      <point x="161" y="1486" type="line"/>
      <point x="156" y="1450" type="line"/>
      <point x="269" y="1420" type="line"/>
      <point x="154" y="582" type="line" smooth="yes"/>
      <point x="148" y="537"/>
      <point x="146" y="493"/>
      <point x="145" y="452" type="curve"/>
      <point x="140" y="161"/>
      <point x="260" y="-20"/>
      <point x="540" y="-20" type="curve"/>
      <point x="824" y="-20"/>
      <point x="988" y="177"/>
    </contour>
  </outline>
</glyph>
<glyph name="V" format="1">
  <advance width="1050"/>
  <unicode hex="0056"/>
  <outline>
    <contour>
      <point x="731" y="1660" type="move" name="top"/>
    </contour>
    <contour>
      <point x="191" y="1423" type="line"/>
      <point x="389" y="-18" type="line"/>
      <point x="511" y="-10" type="line"/>
      <point x="1112" y="1427" type="line"/>
      <point x="1216" y="1450" type="line"/>
      <point x="1221" y="1486" type="line"/>
      <point x="873" y="1486" type="line"/>
      <point x="869" y="1450" type="line"/>
      <point x="1023" y="1425" type="line"/>
      <point x="568" y="288" type="line"/>
      <point x="476" y="55" type="line"/>
      <point x="508" y="53" type="line"/>
      <point x="492" y="258" type="line"/>
      <point x="346" y="1420" type="line"/>
      <point x="511" y="1450" type="line"/>
      <point x="518" y="1486" type="line"/>
      <point x="100" y="1486" type="line"/>
      <point x="96" y="1450" type="line"/>
    </contour>
  </outline>
</glyph>
<glyph name="W" format="1">
  <advance width="1584"/>
  <unicode hex="0057"/>
  <outline>
    <contour>
      <point x="943" y="1486" type="move" name="top"/>
    </contour>
    <contour>
      <point x="734" y="0" type="move" name="bottom"/>
    </contour>
    <contour>
      <point x="823" y="1423" type="line"/>
      <point x="970" y="-18" type="line"/>
      <point x="1092" y="-10" type="line"/>
      <point x="1654" y="1427" type="line"/>
      <point x="1757" y="1450" type="line"/>
      <point x="1762" y="1486" type="line"/>
      <point x="1407" y="1486" type="line"/>
      <point x="1402" y="1450" type="line"/>
      <point x="1564" y="1425" type="line"/>
      <point x="1138" y="277" type="line"/>
      <point x="1056" y="56" type="line"/>
      <point x="1085" y="54" type="line"/>
      <point x="1065" y="350" type="line"/>
      <point x="978" y="1420" type="line"/>
      <point x="1118" y="1450" type="line"/>
      <point x="1126" y="1486" type="line"/>
      <point x="708" y="1486" type="line"/>
      <point x="703" y="1450" type="line"/>
    </contour>
    <contour>
      <point x="188" y="1423" type="line"/>
      <point x="356" y="-18" type="line"/>
      <point x="477" y="-10" type="line"/>
      <point x="969" y="1268" type="line"/>
      <point x="886" y="1267" type="line"/>
      <point x="512" y="257" type="line"/>
      <point x="438" y="56" type="line"/>
      <point x="474" y="54" type="line"/>
      <point x="451" y="350" type="line"/>
      <point x="343" y="1420" type="line"/>
      <point x="502" y="1450" type="line"/>
      <point x="507" y="1486" type="line"/>
      <point x="96" y="1486" type="line"/>
      <point x="92" y="1450" type="line"/>
    </contour>
  </outline>
</glyph>
<glyph name="X" format="1">
  <advance width="1096"/>
  <unicode hex="0058"/>
  <outline>
    <contour>
      <point x="719" y="1660" type="move" name="top"/>
    </contour>
    <contour>
      <point x="488" y="0" type="move" name="bottom"/>
    </contour>
    <contour>
      <point x="-48" y="36" type="line"/>
      <point x="-52" y="0" type="line"/>
      <point x="314" y="0" type="line"/>
      <point x="319" y="36" type="line"/>
      <point x="175" y="66" type="line"/>
      <point x="579" y="709" type="line"/>
      <point x="622" y="737" type="line"/>
      <point x="1093" y="1422" type="line"/>
      <point x="1220" y="1450" type="line"/>
      <point x="1224" y="1486" type="line"/>
      <point x="859" y="1486" type="line"/>
      <point x="854" y="1450" type="line"/>
      <point x="996" y="1419" type="line"/>
      <point x="613" y="822" type="line"/>
      <point x="566" y="796" type="line"/>
      <point x="76" y="64" type="line"/>
    </contour>
    <contour>
      <point x="600" y="36" type="line"/>
      <point x="595" y="0" type="line"/>
      <point x="1036" y="0" type="line"/>
      <point x="1041" y="36" type="line"/>
      <point x="918" y="66" type="line"/>
      <point x="649" y="780" type="line"/>
      <point x="636" y="818" type="line"/>
      <point x="427" y="1422" type="line"/>
      <point x="575" y="1450" type="line"/>
      <point x="580" y="1486" type="line"/>
      <point x="147" y="1486" type="line"/>
      <point x="142" y="1450" type="line"/>
      <point x="260" y="1419" type="line"/>
      <point x="527" y="703" type="line"/>
      <point x="533" y="684" type="line"/>
      <point x="744" y="64" type="line"/>
    </contour>
  </outline>
</glyph>
<glyph name="Y" format="1">
  <advance width="972"/>
  <unicode hex="0059"/>
  <outline>
    <contour>
      <point x="419" y="-166" type="move" name="btm"/>
    </contour>
    <contour>
      <point x="142" y="1486" type="move" name="topleft"/>
    </contour>
    <contour>
      <point x="631" y="1486" type="move" name="top"/>
    </contour>
    <contour>
      <point x="443" y="0" type="move" name="bottom"/>
    </contour>
    <contour>
      <point x="191" y="36" type="line"/>
      <point x="186" y="0" type="line"/>
      <point x="706" y="0" type="line"/>
      <point x="710" y="36" type="line"/>
      <point x="525" y="70" type="line"/>
      <point x="606" y="659" type="line"/>
      <point x="544" y="514" type="line"/>
      <point x="1042" y="1431" type="line"/>
      <point x="1143" y="1450" type="line"/>
      <point x="1148" y="1486" type="line"/>
      <point x="824" y="1486" type="line"/>
      <point x="819" y="1450" type="line"/>
      <point x="949" y="1429" type="line"/>
      <point x="626" y="808" type="line"/>
      <point x="527" y="612" type="line"/>
      <point x="575" y="612" type="line"/>
      <point x="526" y="814" type="line"/>
      <point x="346" y="1429" type="line"/>
      <point x="491" y="1450" type="line"/>
      <point x="496" y="1486" type="line"/>
      <point x="94" y="1486" type="line"/>
      <point x="88" y="1450" type="line"/>
      <point x="183" y="1429" type="line"/>
      <point x="471" y="507" type="line"/>
      <point x="453" y="658" type="line"/>
      <point x="372" y="68" type="line"/>
    </contour>
  </outline>
</glyph>
<glyph name="Z" format="1">
  <advance width="1039"/>
  <unicode hex="005A"/>
  <outline>
    <contour>
      <point x="653" y="1486" type="move" name="top"/>
    </contour>
    <contour>
      <point x="473" y="0" type="move" name="bottom"/>
    </contour>
    <contour>
      <point x="1082" y="1486" type="line"/>
      <point x="255" y="1486" type="line"/>
      <point x="198" y="1140" type="line"/>
      <point x="255" y="1132" type="line"/>
      <point x="360" y="1406" type="line"/>
      <point x="920" y="1422" type="line"/>
      <point x="752" y="1199" type="line"/>
      <point x="-22" y="33" type="line"/>
      <point x="-8" y="0" type="line"/>
      <point x="884" y="0" type="line"/>
      <point x="970" y="364" type="line"/>
      <point x="906" y="383" type="line"/>
      <point x="791" y="105" type="line"/>
      <point x="150" y="64" type="line"/>
      <point x="302" y="262" type="line"/>
      <point x="1093" y="1455" type="line"/>
    </contour>
  </outline>
</glyph>
<glyph name="AE" format="1">
  <advance width="1618"/>
  <unicode hex="00C6"/>
  <outline>
    <contour>
      <point x="1028" y="1486" type="move" name="top"/>
    </contour>
    <contour>
      <point x="569" y="36" type="line"/>
      <point x="564" y="0" type="line"/>
      <point x="1474" y="0" type="line"/>
      <point x="1557" y="327" type="line"/>
      <point x="1493" y="344" type="line"/>
      <point x="1384" y="93" type="line"/>
      <point x="850" y="67" type="line"/>
      <point x="942" y="733" type="line"/>
      <point x="1347" y="718" type="line"/>
      <point x="1361" y="811" type="line"/>
      <point x="952" y="799" type="line"/>
      <point x="1035" y="1422" type="line"/>
      <point x="1473" y="1401" type="line"/>
      <point x="1509" y="1174" type="line"/>
      <point x="1561" y="1174" type="line"/>
      <point x="1573" y="1486" type="line"/>
      <point x="510" y="1486" type="line"/>
      <point x="505" y="1450" type="line"/>
      <point x="700" y="1420" type="line"/>
      <point x="17" y="60" type="line"/>
      <point x="-100" y="36" type="line"/>
      <point x="-105" y="0" type="line"/>
      <point x="292" y="0" type="line"/>
      <point x="296" y="36" type="line"/>
      <point x="154" y="61" type="line"/>
      <point x="334" y="475" type="line"/>
      <point x="754" y="475" type="line"/>
      <point x="697" y="67" type="line"/>
    </contour>
    <contour>
      <point x="362" y="541" type="line"/>
      <point x="770" y="1420" type="line"/>
      <point x="883" y="1420" type="line"/>
      <point x="762" y="541" type="line"/>
    </contour>
  </outline>
</glyph>
<glyph name="Eth" format="1">
  <advance width="1163"/>
  <unicode hex="00D0"/>
  <outline>
    <contour>
      <point x="92" y="802" type="line"/>
      <point x="83" y="732" type="line"/>
      <point x="782" y="732" type="line"/>
      <point x="791" y="802" type="line"/>
    </contour>
    <contour>
      <point x="-13" y="36" type="line"/>
      <point x="-18" y="0" type="line"/>
      <point x="190" y="0" type="line" smooth="yes"/>
      <point x="328" y="0"/>
      <point x="380" y="-17"/>
      <point x="503" y="-17" type="curve"/>
      <point x="910" y="-17"/>
      <point x="1152" y="403"/>
      <point x="1160" y="902" type="curve"/>
      <point x="1163" y="1257"/>
      <point x="1030" y="1502"/>
      <point x="674" y="1502" type="curve"/>
      <point x="592" y="1502"/>
      <point x="507" y="1488"/>
      <point x="421" y="1486" type="curve"/>
      <point x="188" y="1486" type="line"/>
      <point x="183" y="1450" type="line"/>
      <point x="301" y="1419" type="line"/>
      <point x="114" y="67" type="line"/>
    </contour>
    <contour>
      <point x="501" y="37" type="curve"/>
      <point x="390" y="37"/>
      <point x="306" y="62"/>
      <point x="229" y="86" type="curve"/>
      <point x="261" y="28" type="line"/>
      <point x="460" y="1456" type="line"/>
      <point x="423" y="1411" type="line"/>
      <point x="471" y="1427"/>
      <point x="564" y="1449"/>
      <point x="640" y="1449" type="curve"/>
      <point x="908" y="1449"/>
      <point x="1004" y="1255"/>
      <point x="1002" y="890" type="curve"/>
      <point x="995" y="470"/>
      <point x="812" y="37"/>
    </contour>
  </outline>
</glyph>
<glyph name="Oslash" format="1">
  <advance width="1141"/>
  <unicode hex="00D8"/>
  <outline>
    <contour>
      <point x="708" y="1484" type="move" name="top"/>
    </contour>
    <contour>
      <point x="114" y="-132" type="line"/>
      <point x="245" y="-27" type="line"/>
      <point x="1103" y="1617" type="line"/>
      <point x="972" y="1512" type="line"/>
    </contour>
    <contour>
      <point x="517" y="-22" type="curve"/>
      <point x="876" y="-22"/>
      <point x="1126" y="378"/>
      <point x="1134" y="885" type="curve"/>
      <point x="1141" y="1257"/>
      <point x="1006" y="1503"/>
      <point x="710" y="1503" type="curve"/>
      <point x="355" y="1503"/>
      <point x="100" y="1116"/>
      <point x="91" y="605" type="curve"/>
      <point x="85" y="222"/>
      <point x="226" y="-22"/>
    </contour>
    <contour>
      <point x="539" y="29" type="curve"/>
      <point x="346" y="29"/>
      <point x="243" y="255"/>
      <point x="249" y="608" type="curve"/>
      <point x="257" y="1085"/>
      <point x="443" y="1452"/>
      <point x="690" y="1452" type="curve"/>
      <point x="887" y="1452"/>
      <point x="983" y="1239"/>
      <point x="976" y="879" type="curve"/>
      <point x="968" y="424"/>
      <point x="784" y="29"/>
    </contour>
  </outline>
</glyph>
<glyph name="Thorn" format="1">
  <advance width="983"/>
  <unicode hex="00DE"/>
  <outline>
    <contour>
      <point x="-25" y="36" type="line"/>
      <point x="-30" y="0" type="line"/>
      <point x="381" y="0" type="line"/>
      <point x="386" y="36" type="line"/>
      <point x="255" y="67" type="line"/>
      <point x="294" y="347" type="line"/>
      <point x="337" y="340"/>
      <point x="389" y="336"/>
      <point x="448" y="336" type="curve"/>
      <point x="740" y="336"/>
      <point x="952" y="519"/>
      <point x="957" y="800" type="curve"/>
      <point x="961" y="1044"/>
      <point x="837" y="1153"/>
      <point x="570" y="1153" type="curve"/>
      <point x="503" y="1153"/>
      <point x="467" y="1150"/>
      <point x="404" y="1141" type="curve"/>
      <point x="442" y="1419" type="line"/>
      <point x="562" y="1450" type="line"/>
      <point x="567" y="1486" type="line"/>
      <point x="176" y="1486" type="line"/>
      <point x="171" y="1450" type="line"/>
      <point x="289" y="1419" type="line"/>
      <point x="102" y="67" type="line"/>
    </contour>
    <contour>
      <point x="302" y="405" type="curve"/>
      <point x="396" y="1090" type="line"/>
      <point x="440" y="1097"/>
      <point x="492" y="1103"/>
      <point x="541" y="1103" type="curve"/>
      <point x="729" y="1103"/>
      <point x="798" y="994"/>
      <point x="795" y="830" type="curve"/>
      <point x="791" y="577"/>
      <point x="678" y="390"/>
      <point x="445" y="390" type="curve"/>
      <point x="407" y="390"/>
      <point x="346" y="396"/>
    </contour>
  </outline>
</glyph>
<glyph name="Lslash" format="1">
  <advance width="974"/>
  <unicode hex="0141"/>
  <outline>
    <contour>
      <point x="49" y="697" type="line"/>
      <point x="69" y="635" type="line"/>
      <point x="771" y="970" type="line"/>
      <point x="751" y="1035" type="line"/>
    </contour>
    <contour>
      <point x="17" y="36" type="line"/>
      <point x="12" y="0" type="line"/>
      <point x="846" y="0" type="line"/>
      <point x="940" y="435" type="line"/>
      <point x="877" y="449" type="line"/>
      <point x="756" y="93" type="line"/>
      <point x="297" y="66" type="line"/>
      <point x="483" y="1417" type="line"/>
      <point x="621" y="1450" type="line"/>
      <point x="626" y="1486" type="line"/>
      <point x="218" y="1486" type="line"/>
      <point x="213" y="1450" type="line"/>
      <point x="331" y="1419" type="line"/>
      <point x="144" y="67" type="line"/>
    </contour>
  </outline>
</glyph>
<glyph name="Eng" format="1">
  <advance width="1161"/>
  <unicode hex="014A"/>
  <outline>
    <contour>
      <point x="465" y="-405" type="curve"/>
      <point x="484" y="-450" type="line"/>
      <point x="669" y="-417"/>
      <point x="900" y="-267"/>
      <point x="942" y="40" type="curve"/>
      <point x="1133" y="1417" type="line"/>
      <point x="1261" y="1450" type="line"/>
      <point x="1266" y="1486" type="line"/>
      <point x="921" y="1486" type="line"/>
      <point x="916" y="1450" type="line"/>
      <point x="1048" y="1417" type="line"/>
      <point x="901" y="170" type="line"/>
      <point x="837" y="393" type="line"/>
      <point x="428" y="1486" type="line"/>
      <point x="176" y="1486" type="line"/>
      <point x="171" y="1450" type="line"/>
      <point x="290" y="1419" type="line"/>
      <point x="102" y="69" type="line"/>
      <point x="-24" y="36" type="line"/>
      <point x="-30" y="0" type="line"/>
      <point x="315" y="0" type="line"/>
      <point x="320" y="36" type="line"/>
      <point x="186" y="69" type="line"/>
      <point x="338" y="1353" type="line"/>
      <point x="409" y="1105" type="line"/>
      <point x="820" y="0" type="line"/>
      <point x="791" y="-192"/>
      <point x="652" y="-353"/>
    </contour>
  </outline>
</glyph>
<glyph name="OE" format="1">
  <advance width="1804"/>
  <unicode hex="0152"/>
  <outline>
    <contour>
      <point x="519" y="-22" type="curve"/>
      <point x="688" y="-22"/>
      <point x="837" y="79"/>
      <point x="942" y="243" type="curve"/>
      <point x="909" y="0" type="line"/>
      <point x="1662" y="0" type="line"/>
      <point x="1743" y="327" type="line"/>
      <point x="1680" y="344" type="line"/>
      <point x="1571" y="93" type="line"/>
      <point x="1071" y="66" type="line"/>
      <point x="1163" y="733" type="line"/>
      <point x="1534" y="719" type="line"/>
      <point x="1548" y="810" type="line"/>
      <point x="1172" y="798" type="line"/>
      <point x="1258" y="1422" type="line"/>
      <point x="1660" y="1401" type="line"/>
      <point x="1697" y="1174" type="line"/>
      <point x="1748" y="1174" type="line"/>
      <point x="1762" y="1486" type="line"/>
      <point x="1114" y="1486" type="line"/>
      <point x="1074" y="1199" type="line"/>
      <point x="1018" y="1390"/>
      <point x="898" y="1503"/>
      <point x="712" y="1503" type="curve"/>
      <point x="357" y="1503"/>
      <point x="96" y="1116"/>
      <point x="93" y="605" type="curve"/>
      <point x="90" y="222"/>
      <point x="228" y="-22"/>
    </contour>
    <contour>
      <point x="540" y="29" type="curve"/>
      <point x="348" y="29"/>
      <point x="248" y="255"/>
      <point x="251" y="608" type="curve"/>
      <point x="255" y="1085"/>
      <point x="445" y="1452"/>
      <point x="692" y="1452" type="curve"/>
      <point x="889" y="1452"/>
      <point x="979" y="1242"/>
      <point x="977" y="879" type="curve"/>
      <point x="975" y="424"/>
      <point x="786" y="29"/>
    </contour>
  </outline>
</glyph>
<glyph name="Ohorn" format="1">
  <advance width="1201"/>
  <unicode hex="01A0"/>
  <outline>
    <contour>
      <point x="709" y="1486" type="move" name="top"/>
    </contour>
    <contour>
      <point x="522" y="0" type="move" name="bottom"/>
    </contour>
    <contour>
      <point x="931" y="1404" type="curve"/>
      <point x="965" y="1330" type="line"/>
      <point x="1216" y="1342"/>
      <point x="1304" y="1446"/>
      <point x="1307" y="1636" type="curve"/>
      <point x="1308" y="1687"/>
      <point x="1300" y="1713"/>
      <point x="1294" y="1730" type="curve"/>
      <point x="1169" y="1730" type="line"/>
      <point x="1170" y="1721"/>
      <point x="1170" y="1710"/>
      <point x="1170" y="1694" type="curve"/>
      <point x="1167" y="1518"/>
      <point x="1140" y="1404"/>
    </contour>
    <contour>
      <point x="517" y="-22" type="curve"/>
      <point x="876" y="-22"/>
      <point x="1126" y="378"/>
      <point x="1134" y="885" type="curve"/>
      <point x="1141" y="1257"/>
      <point x="1006" y="1503"/>
      <point x="710" y="1503" type="curve"/>
      <point x="355" y="1503"/>
      <point x="100" y="1116"/>
      <point x="91" y="605" type="curve"/>
      <point x="85" y="222"/>
      <point x="226" y="-22"/>
    </contour>
    <contour>
      <point x="539" y="29" type="curve"/>
      <point x="346" y="29"/>
      <point x="243" y="255"/>
      <point x="249" y="608" type="curve"/>
      <point x="257" y="1085"/>
      <point x="443" y="1452"/>
      <point x="690" y="1452" type="curve"/>
      <point x="887" y="1452"/>
      <point x="983" y="1239"/>
      <point x="976" y="879" type="curve"/>
      <point x="968" y="424"/>
      <point x="784" y="29"/>
    </contour>
  </outline>
</glyph>
<glyph name="Uhorn" format="1">
  <advance width="1250"/>
  <unicode hex="01AF"/>
  <outline>
    <contour>
      <point x="740" y="1486" type="move" name="top"/>
    </contour>
    <contour>
      <point x="552" y="0" type="move" name="bottom"/>
    </contour>
    <contour>
      <point x="1043" y="612" type="curve"/>
      <point x="1147" y="1420" type="line"/>
      <point x="1265" y="1450" type="line"/>
      <point x="1270" y="1486" type="line"/>
      <point x="948" y="1486" type="line"/>
      <point x="943" y="1450" type="line"/>
      <point x="1071" y="1419" type="line"/>
      <point x="980" y="612" type="line" smooth="yes"/>
      <point x="937" y="223"/>
      <point x="779" y="59"/>
      <point x="569" y="59" type="curve"/>
      <point x="363" y="59"/>
      <point x="294" y="215"/>
      <point x="298" y="434" type="curve"/>
      <point x="299" y="485"/>
      <point x="304" y="538"/>
      <point x="311" y="594" type="curve"/>
      <point x="423" y="1419" type="line"/>
      <point x="553" y="1450" type="line"/>
      <point x="558" y="1486" type="line"/>
      <point x="161" y="1486" type="line"/>
      <point x="156" y="1450" type="line"/>
      <point x="269" y="1420" type="line"/>
      <point x="154" y="582" type="line" smooth="yes"/>
      <point x="148" y="537"/>
      <point x="146" y="493"/>
      <point x="145" y="452" type="curve"/>
      <point x="140" y="161"/>
      <point x="260" y="-20"/>
      <point x="540" y="-20" type="curve"/>
      <point x="824" y="-20"/>
      <point x="988" y="177"/>
    </contour>
    <contour>
      <point x="1124" y="1505" type="curve"/>
      <point x="1140" y="1436" type="line"/>
      <point x="1329" y="1447"/>
      <point x="1401" y="1551"/>
      <point x="1403" y="1659" type="curve"/>
      <point x="1403" y="1682"/>
      <point x="1394" y="1696"/>
      <point x="1375" y="1711" type="curve"/>
      <point x="1268" y="1705" type="line"/>
      <point x="1281" y="1698"/>
      <point x="1297" y="1689"/>
      <point x="1298" y="1693" type="curve"/>
      <point x="1296" y="1603"/>
      <point x="1270" y="1503"/>
    </contour>
  </outline>
</glyph>
<glyph name="Ezh" format="1">
  <advance width="1019"/>
  <outline>
    <contour>
      <point x="651" y="1486" type="move" name="top"/>
    </contour>
    <contour>
      <point x="401" y="-16" type="curve"/>
      <point x="712" y="-16"/>
      <point x="942" y="150"/>
      <point x="948" y="455" type="curve"/>
      <point x="951" y="625"/>
      <point x="867" y="828"/>
      <point x="655" y="828" type="curve"/>
      <point x="652" y="802" type="line"/>
      <point x="1082" y="1450" type="line"/>
      <point x="1062" y="1486" type="line"/>
      <point x="251" y="1486" type="line"/>
      <point x="194" y="1139" type="line"/>
      <point x="251" y="1131" type="line"/>
      <point x="354" y="1406" type="line"/>
      <point x="908" y="1424" type="line"/>
      <point x="744" y="1201" type="line"/>
      <point x="485" y="806" type="line"/>
      <point x="509" y="773" type="line"/>
      <point x="527" y="786"/>
      <point x="564" y="786"/>
      <point x="588" y="786" type="curve"/>
      <point x="756" y="784"/>
      <point x="792" y="617"/>
      <point x="789" y="455" type="curve"/>
      <point x="785" y="196"/>
      <point x="652" y="37"/>
      <point x="403" y="36" type="curve"/>
      <point x="294" y="37"/>
      <point x="236" y="71"/>
      <point x="196" y="97" type="curve"/>
      <point x="193" y="395" type="line"/>
      <point x="112" y="395" type="line"/>
      <point x="55" y="56" type="line"/>
      <point x="100" y="54"/>
      <point x="233" y="-16"/>
    </contour>
  </outline>
</glyph>
<glyph name="Germandbls" format="1">
  <advance width="1188"/>
  <outline>
    <contour>
      <point x="722" y="-21" type="curve"/>
      <point x="960" y="-21"/>
      <point x="1143" y="180"/>
      <point x="1148" y="446" type="curve"/>
      <point x="1153" y="701"/>
      <point x="992" y="841"/>
      <point x="792" y="890" type="curve"/>
      <point x="1099" y="1344" type="line"/>
      <point x="1108" y="1382" type="line"/>
      <point x="1042" y="1438"/>
      <point x="949" y="1494"/>
      <point x="755" y="1494" type="curve"/>
      <point x="444" y="1494"/>
      <point x="256" y="1224"/>
      <point x="210" y="888" type="curve"/>
      <point x="97" y="68" type="line"/>
      <point x="-30" y="36" type="line"/>
      <point x="-35" y="0" type="line"/>
      <point x="240" y="0" type="line"/>
      <point x="379" y="1014" type="line" smooth="yes"/>
      <point x="421" y="1316"/>
      <point x="515" y="1408"/>
      <point x="719" y="1406" type="curve"/>
      <point x="868" y="1405"/>
      <point x="954" y="1325"/>
      <point x="975" y="1297" type="curve"/>
      <point x="664" y="838" type="line"/>
      <point x="660" y="810" type="line"/>
      <point x="828" y="786"/>
      <point x="989" y="625"/>
      <point x="985" y="403" type="curve"/>
      <point x="982" y="235"/>
      <point x="906" y="33"/>
      <point x="738" y="33" type="curve"/>
      <point x="652" y="33"/>
      <point x="578" y="79"/>
      <point x="558" y="125" type="curve"/>
      <point x="547" y="312" type="line"/>
      <point x="462" y="312" type="line"/>
      <point x="421" y="59" type="line"/>
      <point x="469" y="53"/>
      <point x="560" y="-21"/>
    </contour>
  </outline>
</glyph>
<glyph name="Gstroke" format="1">
  <advance width="1191"/>
  <outline>
    <contour>
      <point x="689" y="443" type="line"/>
      <point x="680" y="373" type="line"/>
      <point x="1178" y="373" type="line"/>
      <point x="1187" y="443" type="line"/>
    </contour>
    <contour>
      <point x="573" y="-17" type="curve"/>
      <point x="683" y="-17"/>
      <point x="782" y="27"/>
      <point x="853" y="53" type="curve"/>
      <point x="916" y="76"/>
      <point x="950" y="86"/>
      <point x="984" y="90" type="curve"/>
      <point x="1072" y="709" type="line"/>
      <point x="714" y="709" type="line"/>
      <point x="707" y="648" type="line"/>
      <point x="918" y="631" type="line"/>
      <point x="853" y="151" type="line"/>
      <point x="790" y="91"/>
      <point x="679" y="37"/>
      <point x="583" y="37" type="curve"/>
      <point x="337" y="37"/>
      <point x="252" y="323"/>
      <point x="252" y="623" type="curve"/>
      <point x="253" y="1011"/>
      <point x="407" y="1449"/>
      <point x="746" y="1449" type="curve"/>
      <point x="897" y="1449"/>
      <point x="956" y="1405"/>
      <point x="1000" y="1371" type="curve"/>
      <point x="1002" y="1142" type="line"/>
      <point x="1071" y="1142" type="line"/>
      <point x="1124" y="1443" type="line"/>
      <point x="1114" y="1444"/>
      <point x="1103" y="1447"/>
      <point x="1089" y="1450" type="curve"/>
      <point x="1027" y="1467"/>
      <point x="925" y="1502"/>
      <point x="763" y="1502" type="curve"/>
      <point x="387" y="1502"/>
      <point x="93" y="1144"/>
      <point x="92" y="612" type="curve"/>
      <point x="92" y="307"/>
      <point x="192" y="-17"/>
    </contour>
  </outline>
</glyph>
<glyph name="Schwa" format="1">
  <advance width="1122"/>
  <outline>
    <contour>
      <point x="498" y="-21" type="curve"/>
      <point x="843" y="-21"/>
      <point x="1104" y="350"/>
      <point x="1113" y="886" type="curve"/>
      <point x="1119" y="1253"/>
      <point x="982" y="1504"/>
      <point x="697" y="1504" type="curve"/>
      <point x="457" y="1504"/>
      <point x="357" y="1430"/>
      <point x="261" y="1424" type="curve"/>
      <point x="215" y="1137" type="line"/>
      <point x="297" y="1137" type="line"/>
      <point x="364" y="1346" type="line"/>
      <point x="412" y="1393"/>
      <point x="519" y="1452"/>
      <point x="670" y="1452" type="curve"/>
      <point x="863" y="1452"/>
      <point x="963" y="1241"/>
      <point x="956" y="890" type="curve"/>
      <point x="956" y="843"/>
      <point x="953" y="797"/>
      <point x="949" y="754" type="curve"/>
      <point x="146" y="754" type="line"/>
      <point x="126" y="698"/>
      <point x="109" y="584"/>
      <point x="107" y="470" type="curve"/>
      <point x="102" y="158"/>
      <point x="268" y="-21"/>
    </contour>
    <contour>
      <point x="507" y="29" type="curve"/>
      <point x="330" y="29"/>
      <point x="253" y="252"/>
      <point x="257" y="443" type="curve"/>
      <point x="258" y="521"/>
      <point x="272" y="618"/>
      <point x="287" y="688" type="curve"/>
      <point x="945" y="688" type="line"/>
      <point x="890" y="295"/>
      <point x="730" y="29"/>
    </contour>
  </outline>
</glyph>
